<?xml version="1.0" standalone="no"?>
<!DOCTYPE svg PUBLIC "-//W3C//DTD SVG 20010904//EN"
 "http://www.w3.org/TR/2001/REC-SVG-20010904/DTD/svg10.dtd">
<svg version="1.0" xmlns="http://www.w3.org/2000/svg"
 width="800.000000pt" height="800.000000pt" viewBox="0 0 800.000000 800.000000"
 preserveAspectRatio="xMidYMid meet">

<g transform="translate(0.000000,800.000000) scale(0.100000,-0.100000)"
fill="#ffffff" stroke="none">
<path d="M350 7954 c-147 -40 -267 -162 -305 -310 -13 -54 -15 -443 -13 -3670
l3 -3609 22 -55 c46 -111 142 -207 253 -253 l55 -22 1953 -3 1952 -2 0 1535 0
1535 -520 0 -520 0 2 603 3 602 518 3 517 2 0 508 c0 279 5 549 10 601 40 376
174 690 392 917 252 263 584 405 1006 433 197 14 758 -6 1010 -35 l52 -6 0
-539 0 -539 -369 0 c-287 0 -388 -3 -457 -15 -220 -39 -337 -147 -386 -355 -6
-26 -12 -236 -15 -507 l-5 -463 597 0 598 0 -6 -37 c-3 -21 -38 -288 -77 -593
-39 -305 -73 -561 -75 -567 -3 -10 -116 -13 -520 -13 l-515 0 0 -1535 0 -1535
1063 2 1062 3 55 22 c111 46 207 142 253 253 l22 55 0 3635 0 3635 -22 55
c-46 111 -142 207 -253 253 l-55 22 -3615 2 c-3159 2 -3622 0 -3670 -13z"/>
</g>
</svg>
