<?xml version="1.0" standalone="no"?>
<!DOCTYPE svg PUBLIC "-//W3C//DTD SVG 20010904//EN"
 "http://www.w3.org/TR/2001/REC-SVG-20010904/DTD/svg10.dtd">
<svg version="1.0" xmlns="http://www.w3.org/2000/svg"
 width="1200.000000pt" height="1200.000000pt" viewBox="0 0 1200.000000 1200.000000"
 preserveAspectRatio="xMidYMid meet">

<g transform="translate(0.000000,1200.000000) scale(0.100000,-0.100000)"
fill="#ffffff" stroke="none">
<path d="M5635 11794 c-22 -2 -96 -8 -165 -14 -916 -78 -1868 -410 -2650 -925
-349 -229 -612 -445 -926 -759 -357 -358 -604 -673 -859 -1096 l-83 -137 441
-382 441 -382 32 113 c91 320 261 656 471 931 103 133 311 348 448 460 288
236 639 422 988 523 173 50 288 73 477 94 154 18 264 19 1707 20 1016 0 1592
-4 1690 -11 370 -27 694 -115 1028 -279 553 -271 1004 -722 1275 -1275 168
-341 254 -663 280 -1045 8 -116 10 -636 7 -1740 -3 -1376 -5 -1590 -20 -1691
-112 -810 -548 -1512 -1224 -1972 -45 -30 -111 -72 -147 -92 -36 -20 -68 -40
-71 -45 -4 -7 691 -621 756 -667 15 -11 33 0 135 82 178 144 323 276 494 451
856 875 1408 1997 1585 3215 45 316 58 536 52 924 -5 354 -16 494 -58 775
-159 1058 -610 2048 -1309 2880 -146 174 -506 534 -680 680 -832 699 -1822
1150 -2880 1309 -299 45 -414 53 -810 56 -212 2 -403 1 -425 -1z"/>
<path d="M4330 9649 c-855 -88 -1588 -670 -1865 -1479 -41 -122 -94 -348 -109
-472 l-6 -48 727 -630 727 -630 37 147 c45 180 88 293 176 466 332 655 972
1108 1696 1202 151 19 423 19 574 0 481 -63 937 -288 1284 -634 289 -290 498
-664 593 -1061 75 -314 75 -706 0 -1020 -75 -315 -225 -621 -434 -885 -231
-292 -593 -557 -937 -685 -51 -19 -92 -38 -90 -41 3 -10 1560 -1360 1574
-1366 19 -8 248 106 358 177 52 34 95 64 95 67 0 2 -11 23 -24 46 -13 23 -27
53 -31 67 -7 22 -1 19 48 -23 30 -26 58 -47 62 -47 13 0 122 94 219 188 338
330 556 759 633 1243 17 107 18 222 18 1769 0 1834 3 1730 -65 1996 -201 780
-814 1393 -1593 1593 -266 69 -148 65 -1952 67 -896 1 -1668 -2 -1715 -7z
m4122 -909 c133 -41 249 -158 289 -292 17 -55 21 -88 17 -158 -4 -77 -9 -98
-42 -164 -116 -235 -390 -323 -618 -199 -95 52 -184 168 -212 278 -88 337 231
639 566 535z"/>
<path d="M5860 7640 c-655 -58 -1215 -503 -1419 -1127 -56 -171 -75 -291 -76
-464 l0 -146 888 -771 888 -770 42 5 c676 80 1240 567 1407 1215 41 161 53
253 53 418 0 165 -12 257 -53 418 -126 486 -484 899 -952 1097 -238 101 -525
147 -778 125z"/>
</g>
</svg>
