<?xml version="1.0" standalone="no"?>
<!DOCTYPE svg PUBLIC "-//W3C//DTD SVG 20010904//EN"
 "http://www.w3.org/TR/2001/REC-SVG-20010904/DTD/svg10.dtd">
<svg version="1.0" xmlns="http://www.w3.org/2000/svg"
 width="512.000000pt" height="512.000000pt" viewBox="0 0 512.000000 512.000000"
 preserveAspectRatio="xMidYMid meet">

<g transform="translate(0.000000,512.000000) scale(0.100000,-0.100000)"
fill="#ffffff" stroke="none">
<path d="M2375 5110 c-356 -28 -714 -131 -1015 -292 -675 -361 -1154 -1004
-1305 -1753 -39 -194 -48 -288 -48 -510 0 -163 5 -242 22 -350 50 -335 150
-629 303 -897 132 -230 239 -370 432 -563 397 -396 903 -644 1476 -721 162
-22 471 -23 635 -1 798 104 1491 561 1894 1251 322 553 425 1216 285 1846
-232 1042 -1100 1836 -2159 1974 -142 19 -392 27 -520 16z m-787 -985 c60 -33
110 -84 144 -147 19 -36 23 -58 23 -138 0 -86 -3 -100 -29 -148 -34 -60 -85
-111 -148 -144 -36 -19 -58 -23 -138 -23 -80 0 -102 4 -138 23 -63 33 -114 84
-148 144 -26 48 -29 62 -29 148 0 79 4 102 23 137 67 127 168 186 307 180 66
-3 90 -8 133 -32z m172 -1885 l0 -1120 -320 0 -320 0 0 1120 0 1120 320 0 320
0 0 -1120z m960 973 l0 -148 24 56 c47 115 120 174 267 216 52 14 100 18 259
17 184 0 199 -1 276 -27 160 -53 265 -146 338 -301 48 -101 68 -167 92 -307
14 -79 17 -210 21 -846 l4 -753 -320 0 -321 0 0 648 c0 426 -4 669 -11 707
-20 109 -66 170 -159 213 -75 35 -220 37 -293 4 -78 -35 -104 -59 -139 -130
l-33 -67 -3 -687 -3 -688 -319 0 -320 0 0 1120 0 1120 320 0 320 0 0 -147z"/>
</g>
</svg>
