<?xml version="1.0" standalone="no"?>
<!DOCTYPE svg PUBLIC "-//W3C//DTD SVG 20010904//EN"
 "http://www.w3.org/TR/2001/REC-SVG-20010904/DTD/svg10.dtd">
<svg version="1.0" xmlns="http://www.w3.org/2000/svg"
 width="1920.000000pt" height="1920.000000pt" viewBox="0 0 1920.000000 1920.000000"
 preserveAspectRatio="xMidYMid meet">

<g transform="translate(0.000000,1920.000000) scale(0.100000,-0.100000)"
fill="#ffffff" stroke="none">
<path d="M8425 14704 c-1036 -26 -1490 -42 -2280 -79 -291 -14 -683 -32 -870
-40 -822 -38 -1283 -128 -1690 -330 -450 -225 -740 -571 -919 -1100 -119 -350
-180 -733 -211 -1323 -77 -1471 -88 -1806 -88 -2572 -1 -1135 39 -1749 168
-2605 125 -829 346 -1250 824 -1569 93 -62 278 -158 386 -201 397 -157 1058
-254 1935 -285 162 -6 475 -19 695 -30 451 -22 970 -43 1530 -62 518 -18 2874
-18 3390 0 563 19 1081 40 1530 62 220 11 533 24 695 30 876 31 1549 130 1931
284 266 107 477 242 663 424 285 279 454 689 550 1337 130 872 170 1491 170
2625 -1 670 -9 961 -49 1768 -13 274 -29 598 -35 722 -27 563 -79 940 -179
1280 -110 377 -267 656 -496 885 -149 150 -267 234 -460 330 -408 202 -868
292 -1685 330 -1686 77 -1673 76 -2565 106 -284 10 -2661 20 -2940 13z m1283
-3855 c851 -496 1671 -974 1822 -1062 151 -88 283 -166 293 -172 19 -14 169
75 -2771 -1639 -496 -289 -907 -526 -912 -526 -7 0 -10 763 -10 2156 0 1945 2
2156 16 2150 8 -3 711 -412 1562 -907z"/>
</g>
</svg>
